<mxfile host="app.diagrams.net" modified="2021-12-26T13:56:59.230Z" agent="5.0 (Macintosh; Intel Mac OS X 10_15_7) AppleWebKit/537.36 (KHTML, like Gecko) Chrome/96.0.4664.110 Safari/537.36" etag="nf_3tu8qhfJjzaHewyVw" version="16.0.3" type="github">
  <diagram id="p1VeRYyc55zru8FFLErf" name="第 1 页">
    <mxGraphModel dx="1200" dy="744" grid="0" gridSize="10" guides="1" tooltips="1" connect="1" arrows="1" fold="1" page="1" pageScale="1" pageWidth="1169" pageHeight="1654" background="#000000" math="0" shadow="0">
      <root>
        <mxCell id="0" />
        <mxCell id="1" parent="0" />
        <mxCell id="rM-OuuZ2YW4BVTtlJVu3-19" value="" style="group" vertex="1" connectable="0" parent="1">
          <mxGeometry x="955" y="90" width="239" height="289" as="geometry" />
        </mxCell>
        <mxCell id="rM-OuuZ2YW4BVTtlJVu3-14" value="" style="rounded=0;whiteSpace=wrap;html=1;fontSize=20;fontColor=#FFFFFF;strokeColor=#FFFFFF;strokeWidth=2;fillColor=none;dashed=1;" vertex="1" parent="rM-OuuZ2YW4BVTtlJVu3-19">
          <mxGeometry y="60" width="239" height="229" as="geometry" />
        </mxCell>
        <mxCell id="rM-OuuZ2YW4BVTtlJVu3-15" value="&lt;font style=&quot;font-size: 29px&quot;&gt;4KB&lt;/font&gt;" style="rounded=0;whiteSpace=wrap;html=1;dashed=1;fontSize=20;fontColor=#FFFFFF;strokeColor=#FFFFFF;strokeWidth=2;fillColor=none;" vertex="1" parent="rM-OuuZ2YW4BVTtlJVu3-19">
          <mxGeometry y="111" width="239" height="178" as="geometry" />
        </mxCell>
        <mxCell id="rM-OuuZ2YW4BVTtlJVu3-16" value="唯一标识符" style="text;html=1;align=center;verticalAlign=middle;resizable=0;points=[];autosize=1;strokeColor=none;fillColor=none;fontSize=20;fontColor=#FFFFFF;" vertex="1" parent="rM-OuuZ2YW4BVTtlJVu3-19">
          <mxGeometry x="64.5" y="71" width="110" height="28" as="geometry" />
        </mxCell>
        <mxCell id="rM-OuuZ2YW4BVTtlJVu3-17" value="" style="shape=curlyBracket;whiteSpace=wrap;html=1;rounded=1;dashed=1;fontSize=20;fontColor=#FFFFFF;strokeColor=#FFFFFF;strokeWidth=2;fillColor=none;rotation=90;" vertex="1" parent="rM-OuuZ2YW4BVTtlJVu3-19">
          <mxGeometry x="109.5" y="-79.5" width="20" height="237" as="geometry" />
        </mxCell>
        <mxCell id="rM-OuuZ2YW4BVTtlJVu3-18" value="64bit" style="text;html=1;align=center;verticalAlign=middle;resizable=0;points=[];autosize=1;strokeColor=none;fillColor=none;fontSize=20;fontColor=#FFFFFF;" vertex="1" parent="rM-OuuZ2YW4BVTtlJVu3-19">
          <mxGeometry x="93" width="53" height="28" as="geometry" />
        </mxCell>
        <mxCell id="rM-OuuZ2YW4BVTtlJVu3-27" value="" style="group" vertex="1" connectable="0" parent="1">
          <mxGeometry x="18" y="28" width="404" height="221" as="geometry" />
        </mxCell>
        <mxCell id="rM-OuuZ2YW4BVTtlJVu3-5" value="" style="group" vertex="1" connectable="0" parent="rM-OuuZ2YW4BVTtlJVu3-27">
          <mxGeometry y="68" width="404" height="80" as="geometry" />
        </mxCell>
        <mxCell id="rM-OuuZ2YW4BVTtlJVu3-1" value="" style="rounded=0;whiteSpace=wrap;html=1;dashed=1;strokeWidth=2;fillColor=none;strokeColor=#FFFFFF;" vertex="1" parent="rM-OuuZ2YW4BVTtlJVu3-5">
          <mxGeometry width="101" height="80" as="geometry" />
        </mxCell>
        <mxCell id="rM-OuuZ2YW4BVTtlJVu3-2" value="" style="rounded=0;whiteSpace=wrap;html=1;dashed=1;strokeWidth=2;fillColor=none;strokeColor=#FFFFFF;" vertex="1" parent="rM-OuuZ2YW4BVTtlJVu3-5">
          <mxGeometry x="101" width="101" height="80" as="geometry" />
        </mxCell>
        <mxCell id="rM-OuuZ2YW4BVTtlJVu3-3" value="" style="rounded=0;whiteSpace=wrap;html=1;dashed=1;strokeWidth=2;fillColor=none;strokeColor=#FFFFFF;" vertex="1" parent="rM-OuuZ2YW4BVTtlJVu3-5">
          <mxGeometry x="202" width="101" height="80" as="geometry" />
        </mxCell>
        <mxCell id="rM-OuuZ2YW4BVTtlJVu3-4" value="" style="rounded=0;whiteSpace=wrap;html=1;dashed=1;strokeWidth=2;fillColor=none;strokeColor=#FFFFFF;" vertex="1" parent="rM-OuuZ2YW4BVTtlJVu3-5">
          <mxGeometry x="303" width="101" height="80" as="geometry" />
        </mxCell>
        <mxCell id="rM-OuuZ2YW4BVTtlJVu3-8" value="&lt;font style=&quot;font-size: 20px&quot;&gt;...8&lt;/font&gt;" style="text;html=1;align=center;verticalAlign=middle;resizable=0;points=[];autosize=1;strokeColor=none;fillColor=none;fontColor=#FFFFFF;strokeWidth=5;" vertex="1" parent="rM-OuuZ2YW4BVTtlJVu3-5">
          <mxGeometry x="335.5" y="30" width="38" height="20" as="geometry" />
        </mxCell>
        <mxCell id="rM-OuuZ2YW4BVTtlJVu3-9" value="512Byte" style="text;html=1;align=center;verticalAlign=middle;resizable=0;points=[];autosize=1;strokeColor=none;fillColor=none;fontSize=20;fontColor=#FFFFFF;" vertex="1" parent="rM-OuuZ2YW4BVTtlJVu3-5">
          <mxGeometry x="10" y="26" width="83" height="28" as="geometry" />
        </mxCell>
        <mxCell id="rM-OuuZ2YW4BVTtlJVu3-11" value="512Byte" style="text;html=1;align=center;verticalAlign=middle;resizable=0;points=[];autosize=1;strokeColor=none;fillColor=none;fontSize=20;fontColor=#FFFFFF;" vertex="1" parent="rM-OuuZ2YW4BVTtlJVu3-5">
          <mxGeometry x="110" y="26" width="83" height="28" as="geometry" />
        </mxCell>
        <mxCell id="rM-OuuZ2YW4BVTtlJVu3-12" value="512Byte" style="text;html=1;align=center;verticalAlign=middle;resizable=0;points=[];autosize=1;strokeColor=none;fillColor=none;fontSize=20;fontColor=#FFFFFF;" vertex="1" parent="rM-OuuZ2YW4BVTtlJVu3-5">
          <mxGeometry x="211" y="26" width="83" height="28" as="geometry" />
        </mxCell>
        <mxCell id="rM-OuuZ2YW4BVTtlJVu3-6" value="" style="shape=curlyBracket;whiteSpace=wrap;html=1;rounded=1;strokeColor=#FFFFFF;strokeWidth=2;fillColor=none;rotation=-90;" vertex="1" parent="rM-OuuZ2YW4BVTtlJVu3-27">
          <mxGeometry x="191.75" y="-34.75" width="20" height="401.5" as="geometry" />
        </mxCell>
        <mxCell id="rM-OuuZ2YW4BVTtlJVu3-21" value="" style="shape=curlyBracket;whiteSpace=wrap;html=1;rounded=1;dashed=1;fontSize=29;fontColor=#FFFFFF;strokeColor=#FFFFFF;strokeWidth=2;fillColor=none;rotation=90;" vertex="1" parent="rM-OuuZ2YW4BVTtlJVu3-27">
          <mxGeometry x="141" y="2" width="20" height="102" as="geometry" />
        </mxCell>
        <mxCell id="rM-OuuZ2YW4BVTtlJVu3-22" value="0.5K" style="text;html=1;align=center;verticalAlign=middle;resizable=0;points=[];autosize=1;strokeColor=none;fillColor=none;fontSize=29;fontColor=#FFFFFF;" vertex="1" parent="rM-OuuZ2YW4BVTtlJVu3-27">
          <mxGeometry x="119" width="70" height="39" as="geometry" />
        </mxCell>
        <mxCell id="rM-OuuZ2YW4BVTtlJVu3-23" value="4K" style="text;html=1;align=center;verticalAlign=middle;resizable=0;points=[];autosize=1;strokeColor=none;fillColor=none;fontSize=29;fontColor=#FFFFFF;" vertex="1" parent="rM-OuuZ2YW4BVTtlJVu3-27">
          <mxGeometry x="179.25" y="182" width="45" height="39" as="geometry" />
        </mxCell>
        <mxCell id="rM-OuuZ2YW4BVTtlJVu3-25" value="" style="shape=curlyBracket;whiteSpace=wrap;html=1;rounded=1;dashed=1;fontSize=29;fontColor=#FFFFFF;strokeColor=#FFFFFF;strokeWidth=2;fillColor=none;rotation=90;size=0.5;" vertex="1" parent="rM-OuuZ2YW4BVTtlJVu3-27">
          <mxGeometry x="40.25" y="1.25" width="20" height="100.5" as="geometry" />
        </mxCell>
        <mxCell id="rM-OuuZ2YW4BVTtlJVu3-26" value="Sector" style="text;html=1;align=center;verticalAlign=middle;resizable=0;points=[];autosize=1;strokeColor=none;fillColor=none;fontSize=29;fontColor=#FFFFFF;" vertex="1" parent="rM-OuuZ2YW4BVTtlJVu3-27">
          <mxGeometry width="94" height="39" as="geometry" />
        </mxCell>
        <mxCell id="rM-OuuZ2YW4BVTtlJVu3-34" value="time" style="text;html=1;align=center;verticalAlign=middle;resizable=0;points=[];autosize=1;strokeColor=none;fillColor=none;fontSize=29;fontColor=#FFFFFF;" vertex="1" parent="1">
          <mxGeometry x="829" y="178" width="65" height="39" as="geometry" />
        </mxCell>
        <mxCell id="rM-OuuZ2YW4BVTtlJVu3-36" value="" style="group" vertex="1" connectable="0" parent="1">
          <mxGeometry x="458" y="23" width="261" height="252" as="geometry" />
        </mxCell>
        <mxCell id="rM-OuuZ2YW4BVTtlJVu3-28" value="4GB" style="rounded=0;whiteSpace=wrap;html=1;fontSize=29;fontColor=#FFFFFF;strokeColor=#FFFFFF;strokeWidth=2;fillColor=none;" vertex="1" parent="rM-OuuZ2YW4BVTtlJVu3-36">
          <mxGeometry x="35.54268292682927" width="77.98170731707317" height="102.3905325443787" as="geometry" />
        </mxCell>
        <mxCell id="rM-OuuZ2YW4BVTtlJVu3-29" value="8MB" style="rounded=0;whiteSpace=wrap;html=1;fontSize=29;fontColor=#FFFFFF;strokeColor=#FFFFFF;strokeWidth=2;fillColor=none;" vertex="1" parent="rM-OuuZ2YW4BVTtlJVu3-36">
          <mxGeometry x="150.1280487804878" y="104.37869822485207" width="110.8719512195122" height="33.798816568047336" as="geometry" />
        </mxCell>
        <mxCell id="rM-OuuZ2YW4BVTtlJVu3-30" value="8GB" style="rounded=0;whiteSpace=wrap;html=1;fontSize=29;fontColor=#FFFFFF;strokeColor=#FFFFFF;strokeWidth=2;fillColor=none;dashed=1;" vertex="1" parent="rM-OuuZ2YW4BVTtlJVu3-36">
          <mxGeometry x="35.54268292682927" y="140.1656804733728" width="77.98170731707317" height="102.3905325443787" as="geometry" />
        </mxCell>
        <mxCell id="rM-OuuZ2YW4BVTtlJVu3-31" value="" style="shape=curlyBracket;whiteSpace=wrap;html=1;rounded=1;flipH=1;dashed=1;fontSize=29;fontColor=#FFFFFF;strokeColor=#FFFFFF;strokeWidth=2;fillColor=none;size=0.5;" vertex="1" parent="rM-OuuZ2YW4BVTtlJVu3-36">
          <mxGeometry x="134.21341463414635" y="54.42603550295858" width="10.609756097560975" height="133.7041420118343" as="geometry" />
        </mxCell>
        <mxCell id="rM-OuuZ2YW4BVTtlJVu3-32" value="" style="endArrow=classic;html=1;rounded=0;fontSize=29;fontColor=#FFFFFF;" edge="1" parent="rM-OuuZ2YW4BVTtlJVu3-36">
          <mxGeometry width="50" height="50" relative="1" as="geometry">
            <mxPoint x="84.8780487804878" y="118.79289940828401" as="sourcePoint" />
            <mxPoint x="111.40243902439025" y="93.94082840236686" as="targetPoint" />
          </mxGeometry>
        </mxCell>
        <mxCell id="rM-OuuZ2YW4BVTtlJVu3-33" value="" style="endArrow=classic;html=1;rounded=0;fontSize=29;fontColor=#FFFFFF;strokeColor=#FFFFFF;" edge="1" parent="rM-OuuZ2YW4BVTtlJVu3-36">
          <mxGeometry width="50" height="50" relative="1" as="geometry">
            <mxPoint as="sourcePoint" />
            <mxPoint y="252" as="targetPoint" />
          </mxGeometry>
        </mxCell>
        <mxCell id="rM-OuuZ2YW4BVTtlJVu3-35" value="inode空间不够" style="text;html=1;align=center;verticalAlign=middle;resizable=0;points=[];autosize=1;strokeColor=none;fillColor=none;fontSize=29;fontColor=#FFFFFF;" vertex="1" parent="rM-OuuZ2YW4BVTtlJVu3-36">
          <mxGeometry x="154.90243902439025" y="152.09467455621302" width="197" height="39" as="geometry" />
        </mxCell>
        <mxCell id="rM-OuuZ2YW4BVTtlJVu3-40" style="edgeStyle=orthogonalEdgeStyle;rounded=0;orthogonalLoop=1;jettySize=auto;html=1;exitX=1;exitY=0.5;exitDx=0;exitDy=0;fontSize=29;fontColor=#FFFFFF;strokeColor=#FFFFFF;" edge="1" parent="1" source="rM-OuuZ2YW4BVTtlJVu3-37">
          <mxGeometry relative="1" as="geometry">
            <mxPoint x="396" y="457" as="targetPoint" />
          </mxGeometry>
        </mxCell>
        <mxCell id="rM-OuuZ2YW4BVTtlJVu3-37" value="直接指针" style="rounded=0;whiteSpace=wrap;html=1;dashed=1;fontSize=29;fontColor=#FFFFFF;strokeColor=#FFFFFF;strokeWidth=2;fillColor=none;" vertex="1" parent="1">
          <mxGeometry x="179" y="433" width="123" height="47" as="geometry" />
        </mxCell>
        <mxCell id="rM-OuuZ2YW4BVTtlJVu3-44" style="edgeStyle=orthogonalEdgeStyle;rounded=0;orthogonalLoop=1;jettySize=auto;html=1;fontSize=29;fontColor=#FFFFFF;strokeColor=#FFFFFF;" edge="1" parent="1" source="rM-OuuZ2YW4BVTtlJVu3-38">
          <mxGeometry relative="1" as="geometry">
            <mxPoint x="393" y="503.5" as="targetPoint" />
          </mxGeometry>
        </mxCell>
        <mxCell id="rM-OuuZ2YW4BVTtlJVu3-38" value="间接指针" style="rounded=0;whiteSpace=wrap;html=1;dashed=1;fontSize=29;fontColor=#FFFFFF;strokeColor=#FFFFFF;strokeWidth=2;fillColor=none;" vertex="1" parent="1">
          <mxGeometry x="179" y="480" width="123" height="47" as="geometry" />
        </mxCell>
        <mxCell id="rM-OuuZ2YW4BVTtlJVu3-45" style="edgeStyle=orthogonalEdgeStyle;rounded=0;orthogonalLoop=1;jettySize=auto;html=1;exitX=1;exitY=0.5;exitDx=0;exitDy=0;fontSize=29;fontColor=#FFFFFF;strokeColor=#FFFFFF;" edge="1" parent="1" source="rM-OuuZ2YW4BVTtlJVu3-39">
          <mxGeometry relative="1" as="geometry">
            <mxPoint x="393" y="553" as="targetPoint" />
          </mxGeometry>
        </mxCell>
        <mxCell id="rM-OuuZ2YW4BVTtlJVu3-39" value="二级指针" style="rounded=0;whiteSpace=wrap;html=1;dashed=1;fontSize=29;fontColor=#FFFFFF;strokeColor=#FFFFFF;strokeWidth=2;fillColor=none;" vertex="1" parent="1">
          <mxGeometry x="179" y="527" width="123" height="52" as="geometry" />
        </mxCell>
        <mxCell id="rM-OuuZ2YW4BVTtlJVu3-41" value="数据范围0-4096*12-1 48k" style="text;html=1;align=center;verticalAlign=middle;resizable=0;points=[];autosize=1;strokeColor=none;fillColor=none;fontSize=29;fontColor=#FFFFFF;" vertex="1" parent="1">
          <mxGeometry x="422" y="439" width="340" height="39" as="geometry" />
        </mxCell>
        <mxCell id="rM-OuuZ2YW4BVTtlJVu3-46" value="数据范围4096*12-4096*13-1" style="text;html=1;align=center;verticalAlign=middle;resizable=0;points=[];autosize=1;strokeColor=none;fillColor=none;fontSize=29;fontColor=#FFFFFF;" vertex="1" parent="1">
          <mxGeometry x="418" y="486" width="378" height="39" as="geometry" />
        </mxCell>
      </root>
    </mxGraphModel>
  </diagram>
</mxfile>
